<?xml version="1.0" encoding="UTF-8"?>
<svg id="Livello_1" data-name="Livello 1" xmlns="http://www.w3.org/2000/svg" xmlns:xlink="http://www.w3.org/1999/xlink" viewBox="0 0 430.16 304.16">
  <defs>
    <style>
      .cls-1, .cls-2 {
        fill: #0069a9;
      }

      .cls-3 {
        fill: none;
      }

      .cls-4 {
        clip-path: url(#clippath-1);
      }

      .cls-5 {
        fill: #016aa8;
      }

      .cls-2 {
        font-family: ArialRoundedMTBold, 'Arial Rounded MT Bold';
        font-size: 24px;
      }

      .cls-6 {
        clip-path: url(#clippath);
      }
    </style>
    <clipPath id="clippath">
      <rect class="cls-3" width="430.16" height="304.16"/>
    </clipPath>
    <clipPath id="clippath-1">
      <rect class="cls-3" width="430.16" height="304.16"/>
    </clipPath>
  </defs>
  <g id="Livello_2" data-name="Livello 2">
    <g>
      <text class="cls-2" transform="translate(207.01 207)"><tspan x="0" y="0">Cosenza</tspan><tspan x="0" y="32">Ciclabile</tspan></text>
      <rect class="cls-1" x="208.45" y="213.38" width="162.67" height="2.83"/>
      <g class="cls-6">
        <g class="cls-4">
          <path class="cls-5" d="M195.08,143.14c-1.05-6.51-4.24-11.66-8.33-15.58-.45-.43-.92-.85-1.39-1.26-5.31-4.54-14.21-8.49-23.95-6.42l-13.19-31.46,12.25-7.09c5.26-2.75,1.39-10.2-4.44-7.32l-18.57,10.59,5.55,15.97h-34.02c-1.19-3.16-2.28-6.42-3.27-9.79h2.72c2.3,0,4.16-1.86,4.16-4.16s-1.86-4.16-4.16-4.16h-20.85c-2.3,0-4.16,1.86-4.16,4.16s1.86,4.16,4.16,4.16h8.77l3.61,10.49-9.89,18.27c-14.13-.93-22.93,5.77-27.95,14.75-2.77,4.97-4.07,11.45-3.3,17.53,2.11,16.63,19.62,29.63,38.18,22.91,10.08-3.65,16.93-12.33,18.57-24.47h12.68s19.43-37.36,19.43-37.36l5.55,9.94c-10.91,5.43-18.92,20.67-12.67,35.93,4.68,11.43,17.66,21.19,34.19,16.49,4.89-1.39,8.76-3.7,11.98-6.93,1.25-1.26,2.4-2.65,3.47-4.18,3.67-5.23,6.23-12.56,4.86-21M101.28,161.79c-1.84,1.88-4.04,3.4-6.5,4.44-2.41,1.02-5.05,1.59-7.83,1.59-11.07,0-20.05-8.98-20.05-20.05s8.98-20.05,20.05-20.05,20.05,8.98,20.05,20.05c0,5.46-2.18,10.4-5.72,14.02M114.89,141.4c-2.49-9.49-8.14-15.81-16.31-19.61l5.03-10.81,16.84,30.42h-5.56ZM126.35,132.9l-13.71-23.65h26.9l-13.19,23.65ZM186.75,149.64c-.94,10.2-9.52,18.19-19.96,18.19-11.07,0-20.05-8.98-20.05-20.05s8.98-20.05,20.05-20.05c10.44,0,19.02,7.99,19.96,18.19.06.61.09,1.23.09,1.86s-.03,1.25-.09,1.86"/>
          <path class="cls-5" d="M86.77,140.92c-3.79,0-6.86,3.07-6.86,6.86s3.07,6.85,6.86,6.85,6.85-3.07,6.85-6.85-3.07-6.86-6.85-6.86"/>
          <path class="cls-5" d="M166.44,140.92c-3.79,0-6.85,3.07-6.85,6.86s3.07,6.85,6.85,6.85,6.86-3.07,6.86-6.85-3.07-6.86-6.86-6.86"/>
          <path class="cls-5" d="M251.79,169.62v-44.17c0-2.3.52-4.02,1.57-5.16,1.05-1.15,2.4-1.72,4.05-1.72s3.09.57,4.15,1.7c1.06,1.14,1.59,2.86,1.59,5.18v44.17c0,2.32-.53,4.05-1.59,5.2-1.06,1.15-2.44,1.72-4.15,1.72s-2.98-.58-4.04-1.74c-1.06-1.16-1.59-2.89-1.59-5.18"/>
          <path class="cls-5" d="M242.4,128.28h-22.37v14.34h18.7c1.73,0,3.03.39,3.88,1.17.85.78,1.28,1.82,1.28,3.12s-.43,2.33-1.3,3.1c-.87.76-2.16,1.15-3.86,1.15h-18.7v18.47c0,2.34-.53,4.08-1.59,5.22-1.06,1.13-2.42,1.7-4.07,1.7s-3.05-.57-4.11-1.72c-1.06-1.15-1.59-2.88-1.59-5.2v-43.13c0-1.63.24-2.96.73-3.99.48-1.03,1.24-1.78,2.28-2.26,1.03-.47,2.35-.71,3.96-.71h26.76c1.81,0,3.15.4,4.04,1.2.88.8,1.32,1.85,1.32,3.16s-.44,2.39-1.32,3.19c-.88.8-2.23,1.2-4.04,1.2"/>
          <path class="cls-5" d="M307.54,169.23l-2.68-7.04h-22.79l-2.68,7.19c-1.05,2.8-1.94,4.7-2.68,5.68-.74.98-1.95,1.47-3.63,1.47-1.43,0-2.69-.52-3.78-1.57-1.1-1.04-1.64-2.23-1.64-3.56,0-.77.13-1.56.38-2.37.25-.82.68-1.95,1.26-3.4l14.34-36.4c.41-1.04.9-2.3,1.47-3.77.57-1.46,1.18-2.68,1.84-3.65.65-.97,1.5-1.75,2.56-2.35,1.06-.6,2.36-.9,3.92-.9s2.9.3,3.96.9c1.06.6,1.91,1.37,2.56,2.31.65.94,1.2,1.96,1.64,3.04.45,1.09,1.01,2.53,1.7,4.34l14.65,36.17c1.15,2.75,1.72,4.76,1.72,6.01s-.54,2.49-1.62,3.58c-1.09,1.08-2.39,1.62-3.92,1.62-.89,0-1.66-.16-2.29-.48-.64-.32-1.17-.75-1.61-1.3-.43-.55-.9-1.39-1.4-2.52-.5-1.13-.92-2.14-1.28-3M285.06,153.67h16.75l-8.45-23.14-8.3,23.14Z"/>
          <path class="cls-5" d="M348.73,175.58h-17.13c-2.47,0-4.24-.56-5.29-1.66-1.06-1.11-1.59-2.87-1.59-5.3v-42.14c0-2.47.54-4.25,1.63-5.33,1.08-1.08,2.84-1.63,5.26-1.63h18.16c2.68,0,5,.17,6.96.5,1.96.33,3.72.97,5.28,1.91,1.33.79,2.5,1.79,3.52,3,1.02,1.21,1.8,2.55,2.33,4.02.53,1.46.8,3.02.8,4.65,0,5.61-2.81,9.71-8.41,12.31,7.37,2.35,11.05,6.91,11.05,13.69,0,3.14-.8,5.96-2.41,8.47-1.61,2.51-3.77,4.37-6.5,5.56-1.71.71-3.67,1.22-5.89,1.51-2.22.29-4.81.44-7.76.44M336.08,128.05v14.49h10.4c2.83,0,5.01-.27,6.56-.8,1.54-.54,2.72-1.56,3.54-3.06.64-1.07.96-2.27.96-3.59,0-2.83-1.01-4.71-3.02-5.64-2.01-.93-5.09-1.4-9.22-1.4h-9.21ZM347.89,150.69h-11.82v16.37h12.2c7.67,0,11.51-2.77,11.51-8.3,0-2.83-.99-4.88-2.98-6.16-1.99-1.27-4.96-1.91-8.91-1.91"/>
        </g>
      </g>
    </g>
  </g>
</svg>