<?xml version="1.0" encoding="UTF-8" standalone="no"?>
<svg
   id="Livello_1"
   data-name="Livello 1"
   viewBox="0 0 313.16 167.16"
   version="1.1"
   sodipodi:docname="logo.svg"
   width="313.16"
   height="167.16"
   inkscape:version="1.1.2 (0a00cf5339, 2022-02-04)"
   xmlns:inkscape="http://www.inkscape.org/namespaces/inkscape"
   xmlns:sodipodi="http://sodipodi.sourceforge.net/DTD/sodipodi-0.dtd"
   xmlns="http://www.w3.org/2000/svg"
   xmlns:svg="http://www.w3.org/2000/svg">
  <sodipodi:namedview
     id="namedview42"
     pagecolor="#ffffff"
     bordercolor="#666666"
     borderopacity="1.0"
     inkscape:pageshadow="2"
     inkscape:pageopacity="0.0"
     inkscape:pagecheckerboard="true"
     showgrid="false"
     width="313.16px"
     height="168.16px"
     inkscape:zoom="1.3397554"
     inkscape:cx="330.65737"
     inkscape:cy="271.31818"
     inkscape:window-width="1920"
     inkscape:window-height="990"
     inkscape:window-x="0"
     inkscape:window-y="28"
     inkscape:window-maximized="1"
     inkscape:current-layer="g38" />
  <defs
     id="defs10">
    <style
       id="style2">
      .cls-1, .cls-2 {
        fill: #0069a9;
      }

      .cls-3 {
        fill: none;
      }

      .cls-4 {
        clip-path: url(#clippath-1);
      }

      .cls-5 {
        fill: #016aa8;
      }

      .cls-2 {
        font-family: ArialRoundedMTBold, 'Arial Rounded MT Bold';
        font-size: 24px;
      }

      .cls-6 {
        clip-path: url(#clippath);
      }
    </style>
    <clipPath
       id="clippath">
      <rect
         class="cls-3"
         width="430.16"
         height="304.16"
         id="rect4"
         x="0"
         y="0" />
    </clipPath>
    <clipPath
       id="clippath-1">
      <rect
         class="cls-3"
         width="430.16"
         height="304.16"
         id="rect7"
         x="0"
         y="0" />
    </clipPath>
  </defs>
  <g
     id="Livello_2"
     data-name="Livello 2"
     transform="translate(-58.263956,-72.670405)">
    <g
       id="g38">
      <text
         class="cls-2"
         transform="translate(207.01,207)"
         id="text16"
         style="letter-spacing:7.18px"><tspan
           sodipodi:role="line"
           id="tspan11513"
           x="0"
           y="0"
           style="letter-spacing:10.75px"><tspan
             x="0"
             y="0"
             id="tspan12"
             style="font-style:normal;font-variant:normal;font-weight:normal;font-stretch:normal;font-family:sans-serif;-inkscape-font-specification:sans-serif;letter-spacing:10.75px">Cosenza</tspan></tspan><tspan
           sodipodi:role="line"
           id="tspan11515"
           x="0"
           y="30"
           style="font-style:normal;font-variant:normal;font-weight:normal;font-stretch:normal;font-family:sans-serif;-inkscape-font-specification:sans-serif;letter-spacing:7.97px">Ciclabile</tspan></text>
      <rect
         class="cls-1"
         x="208.45"
         y="212.63361"
         width="162.67"
         height="2.8299999"
         id="rect18" />
      <g
         class="cls-6"
         clip-path="url(#clippath)"
         id="g36">
        <g
           class="cls-4"
           clip-path="url(#clippath-1)"
           id="g34">
          <path
             class="cls-5"
             d="m 195.08,143.14 c -1.05,-6.51 -4.24,-11.66 -8.33,-15.58 -0.45,-0.43 -0.92,-0.85 -1.39,-1.26 -5.31,-4.54 -14.21,-8.49 -23.95,-6.42 l -13.19,-31.46 12.25,-7.09 c 5.26,-2.75 1.39,-10.2 -4.44,-7.32 l -18.57,10.59 5.55,15.97 h -34.02 c -1.19,-3.16 -2.28,-6.42 -3.27,-9.79 h 2.72 c 2.3,0 4.16,-1.86 4.16,-4.16 0,-2.3 -1.86,-4.16 -4.16,-4.16 H 87.59 c -2.3,0 -4.16,1.86 -4.16,4.16 0,2.3 1.86,4.16 4.16,4.16 h 8.77 l 3.61,10.49 -9.89,18.27 c -14.13,-0.93 -22.93,5.77 -27.95,14.75 -2.77,4.97 -4.07,11.45 -3.3,17.53 2.11,16.63 19.62,29.63 38.18,22.91 10.08,-3.65 16.93,-12.33 18.57,-24.47 h 12.68 c 0,0 19.43,-37.36 19.43,-37.36 l 5.55,9.94 c -10.91,5.43 -18.92,20.67 -12.67,35.93 4.68,11.43 17.66,21.19 34.19,16.49 4.89,-1.39 8.76,-3.7 11.98,-6.93 1.25,-1.26 2.4,-2.65 3.47,-4.18 3.67,-5.23 6.23,-12.56 4.86,-21 m -93.79,18.64 c -1.84,1.88 -4.04,3.4 -6.5,4.44 -2.41,1.02 -5.05,1.59 -7.83,1.59 -11.07,0 -20.05,-8.98 -20.05,-20.05 0,-11.07 8.98,-20.05 20.05,-20.05 11.07,0 20.05,8.98 20.05,20.05 0,5.46 -2.18,10.4 -5.72,14.02 m 13.61,-20.39 c -2.49,-9.49 -8.14,-15.81 -16.31,-19.61 l 5.03,-10.81 16.84,30.42 z m 11.46,-8.5 -13.71,-23.65 h 26.9 z m 60.4,16.74 c -0.94,10.2 -9.52,18.19 -19.96,18.19 -11.07,0 -20.05,-8.98 -20.05,-20.05 0,-11.07 8.98,-20.05 20.05,-20.05 10.44,0 19.02,7.99 19.96,18.19 0.06,0.61 0.09,1.23 0.09,1.86 0,0.63 -0.03,1.25 -0.09,1.86"
             id="path20" />
          <path
             class="cls-5"
             d="m 86.77,140.92 c -3.79,0 -6.86,3.07 -6.86,6.86 0,3.79 3.07,6.85 6.86,6.85 3.79,0 6.85,-3.07 6.85,-6.85 0,-3.78 -3.07,-6.86 -6.85,-6.86"
             id="path22" />
          <path
             class="cls-5"
             d="m 166.44,140.92 c -3.79,0 -6.85,3.07 -6.85,6.86 0,3.79 3.07,6.85 6.85,6.85 3.78,0 6.86,-3.07 6.86,-6.85 0,-3.78 -3.07,-6.86 -6.86,-6.86"
             id="path24" />
          <path
             class="cls-5"
             d="m 251.79,169.62 v -44.17 c 0,-2.3 0.52,-4.02 1.57,-5.16 1.05,-1.15 2.4,-1.72 4.05,-1.72 1.65,0 3.09,0.57 4.15,1.7 1.06,1.14 1.59,2.86 1.59,5.18 v 44.17 c 0,2.32 -0.53,4.05 -1.59,5.2 -1.06,1.15 -2.44,1.72 -4.15,1.72 -1.71,0 -2.98,-0.58 -4.04,-1.74 -1.06,-1.16 -1.59,-2.89 -1.59,-5.18"
             id="path26" />
          <path
             class="cls-5"
             d="m 242.4,128.28 h -22.37 v 14.34 h 18.7 c 1.73,0 3.03,0.39 3.88,1.17 0.85,0.78 1.28,1.82 1.28,3.12 0,1.3 -0.43,2.33 -1.3,3.1 -0.87,0.76 -2.16,1.15 -3.86,1.15 h -18.7 v 18.47 c 0,2.34 -0.53,4.08 -1.59,5.22 -1.06,1.13 -2.42,1.7 -4.07,1.7 -1.65,0 -3.05,-0.57 -4.11,-1.72 -1.06,-1.15 -1.59,-2.88 -1.59,-5.2 V 126.5 c 0,-1.63 0.24,-2.96 0.73,-3.99 0.48,-1.03 1.24,-1.78 2.28,-2.26 1.03,-0.47 2.35,-0.71 3.96,-0.71 h 26.76 c 1.81,0 3.15,0.4 4.04,1.2 0.88,0.8 1.32,1.85 1.32,3.16 0,1.31 -0.44,2.39 -1.32,3.19 -0.88,0.8 -2.23,1.2 -4.04,1.2"
             id="path28" />
          <path
             class="cls-5"
             d="m 307.54,169.23 -2.68,-7.04 h -22.79 l -2.68,7.19 c -1.05,2.8 -1.94,4.7 -2.68,5.68 -0.74,0.98 -1.95,1.47 -3.63,1.47 -1.43,0 -2.69,-0.52 -3.78,-1.57 -1.1,-1.04 -1.64,-2.23 -1.64,-3.56 0,-0.77 0.13,-1.56 0.38,-2.37 0.25,-0.82 0.68,-1.95 1.26,-3.4 l 14.34,-36.4 c 0.41,-1.04 0.9,-2.3 1.47,-3.77 0.57,-1.46 1.18,-2.68 1.84,-3.65 0.65,-0.97 1.5,-1.75 2.56,-2.35 1.06,-0.6 2.36,-0.9 3.92,-0.9 1.56,0 2.9,0.3 3.96,0.9 1.06,0.6 1.91,1.37 2.56,2.31 0.65,0.94 1.2,1.96 1.64,3.04 0.45,1.09 1.01,2.53 1.7,4.34 l 14.65,36.17 c 1.15,2.75 1.72,4.76 1.72,6.01 0,1.25 -0.54,2.49 -1.62,3.58 -1.09,1.08 -2.39,1.62 -3.92,1.62 -0.89,0 -1.66,-0.16 -2.29,-0.48 -0.64,-0.32 -1.17,-0.75 -1.61,-1.3 -0.43,-0.55 -0.9,-1.39 -1.4,-2.52 -0.5,-1.13 -0.92,-2.14 -1.28,-3 m -22.48,-15.56 h 16.75 l -8.45,-23.14 z"
             id="path30" />
          <path
             class="cls-5"
             d="M 348.73,175.58 H 331.6 c -2.47,0 -4.24,-0.56 -5.29,-1.66 -1.06,-1.11 -1.59,-2.87 -1.59,-5.3 v -42.14 c 0,-2.47 0.54,-4.25 1.63,-5.33 1.08,-1.08 2.84,-1.63 5.26,-1.63 h 18.16 c 2.68,0 5,0.17 6.96,0.5 1.96,0.33 3.72,0.97 5.28,1.91 1.33,0.79 2.5,1.79 3.52,3 1.02,1.21 1.8,2.55 2.33,4.02 0.53,1.46 0.8,3.02 0.8,4.65 0,5.61 -2.81,9.71 -8.41,12.31 7.37,2.35 11.05,6.91 11.05,13.69 0,3.14 -0.8,5.96 -2.41,8.47 -1.61,2.51 -3.77,4.37 -6.5,5.56 -1.71,0.71 -3.67,1.22 -5.89,1.51 -2.22,0.29 -4.81,0.44 -7.76,0.44 m -12.66,-47.53 v 14.49 h 10.4 c 2.83,0 5.01,-0.27 6.56,-0.8 1.54,-0.54 2.72,-1.56 3.54,-3.06 0.64,-1.07 0.96,-2.27 0.96,-3.59 0,-2.83 -1.01,-4.71 -3.02,-5.64 -2.01,-0.93 -5.09,-1.4 -9.22,-1.4 h -9.21 z m 11.81,22.64 h -11.82 v 16.37 h 12.2 c 7.67,0 11.51,-2.77 11.51,-8.3 0,-2.83 -0.99,-4.88 -2.98,-6.16 -1.99,-1.27 -4.96,-1.91 -8.91,-1.91"
             id="path32" />
        </g>
      </g>
    </g>
  </g>
</svg>
